<svg width="279" height="900" viewBox="0 0 279 900" fill="none" xmlns="http://www.w3.org/2000/svg">
<rect width="276" height="900" fill="#E2E2E5"/>
<rect x="3" width="276" height="900" fill="#F6F6FB"/>
<rect opacity="0.4" x="3" y="127" width="276" height="64" fill="url(#paint0_linear_1_29)"/>
<path opacity="0.4" d="M274 131C274 128.791 275.791 127 278 127H278.044V191H278C275.791 191 274 189.209 274 187V131Z" fill="#7166F9"/>
<path d="M51.6818 153.226L44.0003 161.362V170.143C44.0003 170.37 44.0705 170.588 44.1956 170.749C44.3206 170.91 44.4901 171 44.6669 171L49.3357 170.984C49.512 170.983 49.6807 170.893 49.805 170.732C49.9292 170.571 49.999 170.354 49.999 170.127V164.999C49.999 164.772 50.0693 164.554 50.1943 164.393C50.3193 164.232 50.4888 164.142 50.6656 164.142H53.3321C53.5089 164.142 53.6784 164.232 53.8035 164.393C53.9285 164.554 53.9987 164.772 53.9987 164.999V170.123C53.9984 170.236 54.0155 170.348 54.0489 170.452C54.0822 170.557 54.1313 170.651 54.1932 170.731C54.2551 170.811 54.3287 170.875 54.4097 170.918C54.4908 170.961 54.5776 170.983 54.6653 170.983L59.3325 171C59.5093 171 59.6788 170.91 59.8038 170.749C59.9289 170.588 59.9991 170.37 59.9991 170.143V161.356L52.3193 153.226C52.229 153.133 52.1165 153.082 52.0005 153.082C51.8846 153.082 51.7721 153.133 51.6818 153.226ZM63.8155 158.756L60.3324 155.064V147.643C60.3324 147.472 60.2797 147.309 60.186 147.188C60.0922 147.068 59.965 147 59.8324 147H57.4993C57.3667 147 57.2395 147.068 57.1457 147.188C57.052 147.309 56.9993 147.472 56.9993 147.643V151.533L53.2692 147.587C52.9112 147.208 52.462 147.001 51.9984 147.001C51.5349 147.001 51.0857 147.208 50.7277 147.587L40.1814 158.756C40.1308 158.81 40.0889 158.876 40.0582 158.951C40.0274 159.025 40.0084 159.107 40.0022 159.191C39.996 159.275 40.0028 159.36 40.0221 159.441C40.0414 159.521 40.0729 159.596 40.1148 159.661L41.1772 161.322C41.219 161.388 41.2703 161.442 41.3284 161.481C41.3864 161.521 41.4499 161.546 41.5154 161.554C41.5808 161.562 41.6469 161.553 41.7097 161.529C41.7726 161.504 41.831 161.463 41.8817 161.41L51.6818 151.03C51.7721 150.936 51.8846 150.885 52.0005 150.885C52.1165 150.885 52.229 150.936 52.3193 151.03L62.1198 161.41C62.1704 161.464 62.2287 161.504 62.2915 161.529C62.3543 161.554 62.4202 161.562 62.4856 161.554C62.551 161.546 62.6145 161.522 62.6726 161.482C62.7306 161.443 62.782 161.389 62.8239 161.324L63.8863 159.663C63.9281 159.598 63.9595 159.522 63.9786 159.441C63.9976 159.36 64.0041 159.275 63.9975 159.191C63.9909 159.106 63.9714 159.024 63.9402 158.95C63.909 158.875 63.8666 158.809 63.8155 158.756Z" fill="#7166F9"/>
<path d="M58.3336 217.4C57.2193 218.305 56.2132 219.256 55.3218 220.211C53.8614 218.451 52.0507 216.665 50 215C44.7361 219.274 41 224.842 41 228.2C41 234.165 46.3727 239 53 239C59.6273 239 65 234.165 65 228.2C65 225.703 62.2154 220.553 58.3336 217.4ZM57.2905 233.368C56.1302 234.079 54.6993 234.5 53.1532 234.5C49.288 234.5 46.1429 232.262 46.1429 228.629C46.1429 226.819 47.4452 225.224 50.0423 222.5C50.4136 222.874 55.3368 228.375 55.3368 228.375L58.4777 225.24C58.6995 225.561 58.9014 225.875 59.0814 226.176C60.5466 228.623 59.9284 231.753 57.2905 233.368Z" fill="black"/>
<path d="M52.5 277.062C56.3818 277.062 59.5312 273.913 59.5312 270.031C59.5312 266.149 56.3818 263 52.5 263C48.6182 263 45.4688 266.149 45.4688 270.031C45.4688 273.913 48.6182 277.062 52.5 277.062ZM58.75 278.625H56.0596C54.9756 279.123 53.7695 279.406 52.5 279.406C51.2305 279.406 50.0293 279.123 48.9404 278.625H46.25C42.7979 278.625 40 281.423 40 284.875V285.656C40 286.95 41.0498 288 42.3438 288H62.6562C63.9502 288 65 286.95 65 285.656V284.875C65 281.423 62.2021 278.625 58.75 278.625Z" fill="black"/>
<path d="M41 416V394.25C41 393.007 42.3431 392 44 392H62C63.6569 392 65 393.007 65 394.25V416L53 410.75L41 416Z" fill="black"/>
<path d="M54 338.375V332H41.5C40.6687 332 40 332.502 40 333.125V354.875C40 355.498 40.6687 356 41.5 356H62.5C63.3312 356 64 355.498 64 354.875V339.5H55.5C54.675 339.5 54 338.994 54 338.375ZM58 349.438C58 349.747 57.6625 350 57.25 350H46.75C46.3375 350 46 349.747 46 349.438V349.063C46 348.753 46.3375 348.5 46.75 348.5H57.25C57.6625 348.5 58 348.753 58 349.063V349.438ZM58 346.438C58 346.747 57.6625 347 57.25 347H46.75C46.3375 347 46 346.747 46 346.438V346.063C46 345.753 46.3375 345.5 46.75 345.5H57.25C57.6625 345.5 58 345.753 58 346.063V346.438ZM58 343.063V343.438C58 343.747 57.6625 344 57.25 344H46.75C46.3375 344 46 343.747 46 343.438V343.063C46 342.753 46.3375 342.5 46.75 342.5H57.25C57.6625 342.5 58 342.753 58 343.063ZM64 337.714V338H56V332H56.3813C56.7812 332 57.1625 332.117 57.4438 332.328L63.5625 336.922C63.8438 337.133 64 337.419 64 337.714Z" fill="black"/>
<path d="M64 665C64 671.629 58.627 677 52 677C45.373 677 40 671.629 40 665C40 658.375 45.373 653 52 653C58.627 653 64 658.375 64 665ZM52.322 656.968C49.6851 656.968 48.0032 658.079 46.6825 660.053C46.5115 660.309 46.5687 660.654 46.8139 660.84L48.4929 662.113C48.7448 662.304 49.1036 662.258 49.2993 662.01C50.1637 660.914 50.7564 660.278 52.072 660.278C53.0605 660.278 54.2832 660.914 54.2832 661.873C54.2832 662.597 53.685 662.969 52.709 663.517C51.5707 664.155 50.0645 664.949 50.0645 666.936V667.129C50.0645 667.45 50.3245 667.71 50.6452 667.71H53.3548C53.6755 667.71 53.9355 667.45 53.9355 667.129V667.065C53.9355 665.687 57.9606 665.63 57.9606 661.903C57.9606 659.097 55.0494 656.968 52.322 656.968ZM52 668.968C50.7727 668.968 49.7742 669.966 49.7742 671.194C49.7742 672.421 50.7727 673.419 52 673.419C53.2273 673.419 54.2258 672.421 54.2258 671.194C54.2258 669.966 53.2273 668.968 52 668.968Z" fill="black"/>
<path d="M62.8885 620.019L60.8084 618.818C61.0184 617.686 61.0184 616.523 60.8084 615.391L62.8885 614.189C63.1277 614.053 63.2352 613.77 63.157 613.506C62.615 611.768 61.6922 610.195 60.4861 608.887C60.3006 608.687 59.9979 608.638 59.7635 608.774L57.6834 609.976C56.8094 609.224 55.8035 608.643 54.7147 608.262V605.864C54.7147 605.591 54.5242 605.352 54.2557 605.293C52.4637 604.893 50.6277 604.912 48.9236 605.293C48.6551 605.352 48.4647 605.591 48.4647 605.864V608.267C47.3807 608.652 46.3748 609.233 45.4959 609.98L43.4207 608.779C43.1815 608.643 42.8836 608.687 42.6981 608.892C41.492 610.195 40.5691 611.768 40.0272 613.511C39.9441 613.774 40.0565 614.058 40.2957 614.194L42.3758 615.395C42.1658 616.528 42.1658 617.69 42.3758 618.823L40.2957 620.024C40.0565 620.161 39.949 620.444 40.0272 620.708C40.5691 622.446 41.492 624.018 42.6981 625.327C42.8836 625.527 43.1863 625.576 43.4207 625.439L45.5008 624.238C46.3748 624.99 47.3807 625.571 48.4695 625.952V628.354C48.4695 628.628 48.66 628.867 48.9285 628.926C50.7205 629.326 52.5565 629.307 54.2606 628.926C54.5291 628.867 54.7195 628.628 54.7195 628.354V625.952C55.8035 625.566 56.8094 624.985 57.6883 624.238L59.7684 625.439C60.0076 625.576 60.3055 625.532 60.491 625.327C61.6971 624.023 62.6199 622.451 63.1619 620.708C63.2352 620.439 63.1277 620.156 62.8885 620.019ZM51.5897 621.011C49.4363 621.011 47.6834 619.258 47.6834 617.104C47.6834 614.951 49.4363 613.198 51.5897 613.198C53.743 613.198 55.4959 614.951 55.4959 617.104C55.4959 619.258 53.743 621.011 51.5897 621.011Z" fill="black"/>
<path d="M57.0014 726.714C57.0014 726.419 56.8972 726.133 56.7097 725.922L52.6302 721.328C52.4427 721.117 52.1885 721 51.9218 721H51.6676V727H57.0014V726.714ZM64.7937 735.438L60.8059 730.919C60.385 730.445 59.6641 730.778 59.6641 731.448V734.5H56.9972V737.5H59.6641V740.556C59.6641 741.227 60.385 741.559 60.8059 741.086L64.7937 736.563C65.0688 736.253 65.0688 735.747 64.7937 735.438ZM49.0007 736.75V735.25C49.0007 734.838 49.3007 734.5 49.6674 734.5H57.0014V728.5H51.3342C50.7842 728.5 50.3341 727.994 50.3341 727.375V721H42.0001C41.4459 721 41 721.502 41 722.125V743.875C41 744.498 41.4459 745 42.0001 745H56.0013C56.5555 745 57.0014 744.498 57.0014 743.875V737.5H49.6674C49.3007 737.5 49.0007 737.163 49.0007 736.75Z" fill="#928484"/>
<defs>
<linearGradient id="paint0_linear_1_29" x1="279" y1="191" x2="8.00002" y2="185.5" gradientUnits="userSpaceOnUse">
<stop stop-color="#7166F9" stop-opacity="0.07"/>
<stop offset="1" stop-color="#7166F9" stop-opacity="0.03"/>
</linearGradient>
</defs>
</svg>
