<svg width="168" height="130" viewBox="0 0 168 130" fill="none" xmlns="http://www.w3.org/2000/svg">
<circle cx="65" cy="65" r="65" fill="#F3F3F9"/>
<path d="M113 65.5C113 92.2858 91.2859 114 64.5001 114C37.7143 114 16.0001 92.2858 16.0001 65.5C16.0001 38.7142 37.7143 17 64.5001 17C91.2859 17 113 38.7142 113 65.5Z" stroke="#4CD7F6" stroke-width="13"/>
<circle cx="67" cy="17" r="2" fill="#F6F6FB"/>
<circle cx="69" cy="114" r="2" fill="#F6F6FB"/>
<path d="M67.5 114C41.5 114 18.5 100 16 67C16 36.6243 36.1243 17 66.5 17" stroke="#E17CFD" stroke-width="13" stroke-linecap="round"/>
<circle cx="67" cy="17" r="2" fill="#F6F6FB"/>
<circle cx="67" cy="114" r="2" fill="#F6F6FB"/>
<path d="M41.6719 68.4219L38.6719 67.6875L39.9062 56.25H52.1719V59.4375H43.0312L42.4062 65.0156C42.7604 64.8073 43.25 64.6042 43.875 64.4062C44.5 64.1979 45.2135 64.0938 46.0156 64.0938C47.0885 64.0938 48.0469 64.2708 48.8906 64.625C49.7448 64.9688 50.4688 65.474 51.0625 66.1406C51.6562 66.7969 52.1094 67.599 52.4219 68.5469C52.7344 69.4844 52.8906 70.5417 52.8906 71.7188C52.8906 72.7708 52.7344 73.7552 52.4219 74.6719C52.1198 75.5885 51.6615 76.3958 51.0469 77.0938C50.4323 77.7917 49.6562 78.3385 48.7188 78.7344C47.7917 79.1198 46.6927 79.3125 45.4219 79.3125C44.474 79.3125 43.5625 79.1771 42.6875 78.9062C41.8229 78.625 41.0469 78.2135 40.3594 77.6719C39.6719 77.1198 39.1198 76.4427 38.7031 75.6406C38.2865 74.8281 38.0469 73.8958 37.9844 72.8438H41.6719C41.7656 73.5833 41.9688 74.2135 42.2812 74.7344C42.6042 75.2448 43.0312 75.6354 43.5625 75.9062C44.0938 76.1771 44.7083 76.3125 45.4062 76.3125C46.0417 76.3125 46.5885 76.2031 47.0469 75.9844C47.5052 75.7552 47.8854 75.4323 48.1875 75.0156C48.5 74.5885 48.7292 74.0885 48.875 73.5156C49.0312 72.9427 49.1094 72.3073 49.1094 71.6094C49.1094 70.9427 49.0208 70.3333 48.8438 69.7812C48.6771 69.2292 48.4219 68.75 48.0781 68.3438C47.7448 67.9375 47.3229 67.625 46.8125 67.4062C46.3021 67.1771 45.7135 67.0625 45.0469 67.0625C44.151 67.0625 43.4635 67.1927 42.9844 67.4531C42.5156 67.7135 42.0781 68.0365 41.6719 68.4219ZM70.7344 65.7188V69.4375C70.7344 71.2188 70.5573 72.7396 70.2031 74C69.8594 75.25 69.3594 76.2656 68.7031 77.0469C68.0469 77.8281 67.2604 78.401 66.3438 78.7656C65.4375 79.1302 64.4219 79.3125 63.2969 79.3125C62.401 79.3125 61.5677 79.1979 60.7969 78.9688C60.0365 78.7396 59.349 78.3802 58.7344 77.8906C58.1198 77.401 57.5938 76.7708 57.1562 76C56.7292 75.2188 56.3958 74.2865 56.1562 73.2031C55.9271 72.1198 55.8125 70.8646 55.8125 69.4375V65.7188C55.8125 63.9271 55.9896 62.4167 56.3438 61.1875C56.6979 59.9479 57.2031 58.9427 57.8594 58.1719C58.5156 57.3906 59.2969 56.8229 60.2031 56.4688C61.1198 56.1146 62.1406 55.9375 63.2656 55.9375C64.1719 55.9375 65.0052 56.0521 65.7656 56.2812C66.5365 56.5 67.224 56.849 67.8281 57.3281C68.4427 57.8073 68.9635 58.4323 69.3906 59.2031C69.8281 59.9635 70.1615 60.8854 70.3906 61.9688C70.6198 63.0417 70.7344 64.2917 70.7344 65.7188ZM66.9688 69.9688V65.1562C66.9688 64.25 66.9167 63.4531 66.8125 62.7656C66.7083 62.0677 66.5521 61.4792 66.3438 61C66.1458 60.5104 65.8958 60.1146 65.5938 59.8125C65.2917 59.5 64.9479 59.276 64.5625 59.1406C64.1771 58.9948 63.7448 58.9219 63.2656 58.9219C62.6823 58.9219 62.1615 59.0365 61.7031 59.2656C61.2448 59.4844 60.8594 59.8385 60.5469 60.3281C60.2344 60.8177 59.9948 61.4635 59.8281 62.2656C59.6719 63.0573 59.5938 64.0208 59.5938 65.1562V69.9688C59.5938 70.8854 59.6458 71.6927 59.75 72.3906C59.8542 73.0885 60.0104 73.6875 60.2188 74.1875C60.4271 74.6771 60.6771 75.0833 60.9688 75.4062C61.2708 75.7188 61.6146 75.9479 62 76.0938C62.3958 76.2396 62.8281 76.3125 63.2969 76.3125C63.8906 76.3125 64.4167 76.1979 64.875 75.9688C65.3333 75.7396 65.7188 75.375 66.0312 74.875C66.3438 74.3646 66.5781 73.7031 66.7344 72.8906C66.8906 72.0781 66.9688 71.1042 66.9688 69.9688ZM73.9375 61.8281V60.625C73.9375 59.7604 74.125 58.974 74.5 58.2656C74.875 57.5573 75.4219 56.9896 76.1406 56.5625C76.8594 56.1354 77.724 55.9219 78.7344 55.9219C79.776 55.9219 80.651 56.1354 81.3594 56.5625C82.0781 56.9896 82.625 57.5573 83 58.2656C83.375 58.974 83.5625 59.7604 83.5625 60.625V61.8281C83.5625 62.6719 83.375 63.4479 83 64.1562C82.6354 64.8646 82.0938 65.4323 81.375 65.8594C80.6667 66.2865 79.7969 66.5 78.7656 66.5C77.7448 66.5 76.8698 66.2865 76.1406 65.8594C75.4219 65.4323 74.875 64.8646 74.5 64.1562C74.125 63.4479 73.9375 62.6719 73.9375 61.8281ZM76.5469 60.625V61.8281C76.5469 62.2448 76.625 62.6406 76.7812 63.0156C76.9479 63.3906 77.1979 63.6927 77.5312 63.9219C77.8646 64.151 78.276 64.2656 78.7656 64.2656C79.2656 64.2656 79.6719 64.151 79.9844 63.9219C80.3073 63.6927 80.5469 63.3906 80.7031 63.0156C80.8594 62.6406 80.9375 62.2448 80.9375 61.8281V60.625C80.9375 60.1979 80.8542 59.7969 80.6875 59.4219C80.5312 59.0365 80.2917 58.7292 79.9688 58.5C79.6458 58.2708 79.2344 58.1562 78.7344 58.1562C78.2552 58.1562 77.849 58.2708 77.5156 58.5C77.1927 58.7292 76.9479 59.0365 76.7812 59.4219C76.625 59.7969 76.5469 60.1979 76.5469 60.625ZM84.9062 74.6406V73.4219C84.9062 72.5677 85.0938 71.7865 85.4688 71.0781C85.8542 70.3698 86.4062 69.8021 87.125 69.375C87.8438 68.9479 88.7083 68.7344 89.7188 68.7344C90.7604 68.7344 91.6354 68.9479 92.3438 69.375C93.0625 69.8021 93.6042 70.3698 93.9688 71.0781C94.3438 71.7865 94.5312 72.5677 94.5312 73.4219V74.6406C94.5312 75.4948 94.3438 76.276 93.9688 76.9844C93.6042 77.6927 93.0677 78.2604 92.3594 78.6875C91.651 79.1146 90.7865 79.3281 89.7656 79.3281C88.7344 79.3281 87.8542 79.1146 87.125 78.6875C86.4062 78.2604 85.8542 77.6927 85.4688 76.9844C85.0938 76.276 84.9062 75.4948 84.9062 74.6406ZM87.5312 73.4219V74.6406C87.5312 75.0573 87.6146 75.4531 87.7812 75.8281C87.9583 76.2031 88.2135 76.5104 88.5469 76.75C88.8802 76.9792 89.2812 77.0938 89.75 77.0938C90.2812 77.0938 90.7083 76.9792 91.0312 76.75C91.3542 76.5104 91.5833 76.2083 91.7188 75.8438C91.8646 75.4688 91.9375 75.0677 91.9375 74.6406V73.4219C91.9375 72.9948 91.8542 72.5938 91.6875 72.2188C91.5312 71.8438 91.2865 71.5417 90.9531 71.3125C90.6302 71.0833 90.2188 70.9688 89.7188 70.9688C89.2292 70.9688 88.8229 71.0833 88.5 71.3125C88.1771 71.5417 87.9323 71.8438 87.7656 72.2188C87.6094 72.5938 87.5312 72.9948 87.5312 73.4219ZM90.6562 59.5L79.5469 77.2812L77.625 76.1719L88.7344 58.3906L90.6562 59.5Z" fill="black"/>
<path d="M55.2988 98H53.5176L53.5293 97.0801H55.2988C55.9082 97.0801 56.416 96.9531 56.8223 96.6992C57.2285 96.4414 57.5332 96.082 57.7363 95.6211C57.9434 95.1562 58.0469 94.6133 58.0469 93.9922V93.4707C58.0469 92.9824 57.9883 92.5488 57.8711 92.1699C57.7539 91.7871 57.582 91.4648 57.3555 91.2031C57.1289 90.9375 56.8516 90.7363 56.5234 90.5996C56.1992 90.4629 55.8262 90.3945 55.4043 90.3945H53.4824V89.4688H55.4043C55.9629 89.4688 56.4727 89.5625 56.9336 89.75C57.3945 89.9336 57.791 90.2012 58.123 90.5527C58.459 90.9004 58.7168 91.3223 58.8965 91.8184C59.0762 92.3105 59.166 92.8652 59.166 93.4824V93.9922C59.166 94.6094 59.0762 95.166 58.8965 95.6621C58.7168 96.1543 58.457 96.5742 58.1172 96.9219C57.7812 97.2695 57.375 97.5371 56.8984 97.7246C56.4258 97.9082 55.8926 98 55.2988 98ZM54.1211 89.4688V98H52.9902V89.4688H54.1211ZM61.6389 91.6602V98H60.5491V91.6602H61.6389ZM60.467 89.9785C60.467 89.8027 60.5198 89.6543 60.6252 89.5332C60.7346 89.4121 60.8948 89.3516 61.1057 89.3516C61.3127 89.3516 61.4709 89.4121 61.5803 89.5332C61.6936 89.6543 61.7502 89.8027 61.7502 89.9785C61.7502 90.1465 61.6936 90.291 61.5803 90.4121C61.4709 90.5293 61.3127 90.5879 61.1057 90.5879C60.8948 90.5879 60.7346 90.5293 60.6252 90.4121C60.5198 90.291 60.467 90.1465 60.467 89.9785ZM64.2231 92.6562V98H63.1391V91.6602H64.1938L64.2231 92.6562ZM66.2036 91.625L66.1977 92.6328C66.1079 92.6133 66.022 92.6016 65.9399 92.5977C65.8618 92.5898 65.772 92.5859 65.6704 92.5859C65.4204 92.5859 65.1997 92.625 65.0083 92.7031C64.8169 92.7812 64.6548 92.8906 64.522 93.0312C64.3891 93.1719 64.2837 93.3398 64.2055 93.5352C64.1313 93.7266 64.0825 93.9375 64.0591 94.168L63.7544 94.3438C63.7544 93.9609 63.7915 93.6016 63.8657 93.2656C63.9438 92.9297 64.063 92.6328 64.2231 92.375C64.3833 92.1133 64.5864 91.9102 64.8325 91.7656C65.0825 91.6172 65.3794 91.543 65.7231 91.543C65.8013 91.543 65.8911 91.5527 65.9927 91.5723C66.0942 91.5879 66.1645 91.6055 66.2036 91.625ZM69.4792 98.1172C69.0378 98.1172 68.6374 98.043 68.278 97.8945C67.9226 97.7422 67.6159 97.5293 67.3581 97.2559C67.1042 96.9824 66.9089 96.6582 66.7722 96.2832C66.6355 95.9082 66.5671 95.498 66.5671 95.0527V94.8066C66.5671 94.291 66.6433 93.832 66.7956 93.4297C66.948 93.0234 67.155 92.6797 67.4167 92.3984C67.6784 92.1172 67.9753 91.9043 68.3073 91.7598C68.6394 91.6152 68.9831 91.543 69.3386 91.543C69.7917 91.543 70.1823 91.6211 70.5105 91.7773C70.8425 91.9336 71.114 92.1523 71.3249 92.4336C71.5359 92.7109 71.6921 93.0391 71.7937 93.418C71.8952 93.793 71.946 94.2031 71.946 94.6484V95.1348H67.2116V94.25H70.862V94.168C70.8464 93.8867 70.7878 93.6133 70.6862 93.3477C70.5886 93.082 70.4323 92.8633 70.2175 92.6914C70.0027 92.5195 69.7097 92.4336 69.3386 92.4336C69.0925 92.4336 68.8659 92.4863 68.6589 92.5918C68.4519 92.6934 68.2741 92.8457 68.1257 93.0488C67.9773 93.252 67.862 93.5 67.78 93.793C67.698 94.0859 67.657 94.4238 67.657 94.8066V95.0527C67.657 95.3535 67.698 95.6367 67.78 95.9023C67.8659 96.1641 67.989 96.3945 68.1491 96.5938C68.3132 96.793 68.5105 96.9492 68.7409 97.0625C68.9753 97.1758 69.2409 97.2324 69.5378 97.2324C69.9206 97.2324 70.2448 97.1543 70.5105 96.998C70.7761 96.8418 71.0085 96.6328 71.2077 96.3711L71.864 96.8926C71.7273 97.0996 71.5534 97.2969 71.3425 97.4844C71.1316 97.6719 70.8718 97.8242 70.5632 97.9414C70.2585 98.0586 69.8972 98.1172 69.4792 98.1172ZM75.5088 97.2266C75.7666 97.2266 76.0048 97.1738 76.2236 97.0684C76.4423 96.9629 76.622 96.8184 76.7627 96.6348C76.9033 96.4473 76.9834 96.2344 77.0029 95.9961H78.0341C78.0146 96.3711 77.8877 96.7207 77.6533 97.0449C77.4228 97.3652 77.1201 97.625 76.7451 97.8242C76.3701 98.0195 75.958 98.1172 75.5088 98.1172C75.0322 98.1172 74.6162 98.0332 74.2607 97.8652C73.9091 97.6973 73.6162 97.4668 73.3818 97.1738C73.1513 96.8809 72.9775 96.5449 72.8603 96.166C72.747 95.7832 72.6904 95.3789 72.6904 94.9531V94.707C72.6904 94.2812 72.747 93.8789 72.8603 93.5C72.9775 93.1172 73.1513 92.7793 73.3818 92.4863C73.6162 92.1934 73.9091 91.9629 74.2607 91.7949C74.6162 91.627 75.0322 91.543 75.5088 91.543C76.0048 91.543 76.4384 91.6445 76.8095 91.8477C77.1806 92.0469 77.4716 92.3203 77.6826 92.668C77.8974 93.0117 78.0146 93.4023 78.0341 93.8398H77.0029C76.9834 93.5781 76.9091 93.3418 76.7802 93.1309C76.6552 92.9199 76.4834 92.752 76.2646 92.627C76.0498 92.498 75.7978 92.4336 75.5088 92.4336C75.1767 92.4336 74.8974 92.5 74.6709 92.6328C74.4482 92.7617 74.2705 92.9375 74.1377 93.1602C74.0088 93.3789 73.915 93.623 73.8564 93.8926C73.8017 94.1582 73.7744 94.4297 73.7744 94.707V94.9531C73.7744 95.2305 73.8017 95.5039 73.8564 95.7734C73.9111 96.043 74.0029 96.2871 74.1318 96.5059C74.2646 96.7246 74.4423 96.9004 74.665 97.0332C74.8916 97.1621 75.1728 97.2266 75.5088 97.2266ZM81.6672 91.6602V92.4922H78.2395V91.6602H81.6672ZM79.3996 90.1191H80.4836V96.4297C80.4836 96.6445 80.5168 96.8066 80.5832 96.916C80.6496 97.0254 80.7355 97.0977 80.841 97.1328C80.9465 97.168 81.0598 97.1855 81.1809 97.1855C81.2707 97.1855 81.3645 97.1777 81.4621 97.1621C81.5637 97.1426 81.6398 97.127 81.6906 97.1152L81.6965 98C81.6105 98.0273 81.4973 98.0527 81.3566 98.0762C81.2199 98.1035 81.0539 98.1172 80.8586 98.1172C80.593 98.1172 80.3488 98.0645 80.1262 97.959C79.9035 97.8535 79.7258 97.6777 79.593 97.4316C79.4641 97.1816 79.3996 96.8457 79.3996 96.4238V90.1191Z" fill="#9B9B9B"/>
</svg>
