<svg width="21" height="19" viewBox="0 0 21 19" fill="none" xmlns="http://www.w3.org/2000/svg">
<path d="M20.4439 9.89675C20.4439 14.8301 15.9445 18.8273 10.3951 18.8273C4.84571 18.8273 0.346329 14.8301 0.346329 9.89675C0.346329 4.96632 4.84571 0.966187 10.3951 0.966187C15.9445 0.966187 20.4439 4.96632 20.4439 9.89675ZM10.6648 3.91904C8.45659 3.91904 7.04822 4.74572 5.94228 6.21498C5.79901 6.40533 5.84694 6.66205 6.05229 6.80044L7.45827 7.74787C7.66917 7.89001 7.96967 7.85619 8.13353 7.67146C8.85736 6.85554 9.35368 6.3824 10.4554 6.3824C11.2832 6.3824 12.3071 6.85586 12.3071 7.56922C12.3071 8.10852 11.8061 8.38547 10.9888 8.79271C10.0356 9.26758 8.77434 9.85862 8.77434 11.3372V11.4812C8.77434 11.7198 8.99205 11.9133 9.26057 11.9133H11.5296C11.7982 11.9133 12.0159 11.7198 12.0159 11.4812V11.4332C12.0159 10.4083 15.3865 10.3656 15.3865 7.59209C15.3865 5.50342 12.9487 3.91904 10.6648 3.91904ZM10.3951 12.8496C9.36734 12.8496 8.53122 13.5927 8.53122 14.5061C8.53122 15.4194 9.36734 16.1626 10.3951 16.1626C11.4229 16.1626 12.259 15.4194 12.259 14.5061C12.259 13.5927 11.4229 12.8496 10.3951 12.8496Z" fill="#F6F6FB"/>
</svg>
